<svg xmlns="http://www.w3.org/2000/svg" viewBox="0 0 512 512" fill="none">
  <defs>
    <linearGradient id="g" x1="0" y1="0" x2="1" y2="1">
      <stop offset="0" stop-color="#7C6FF7"/>
      <stop offset="1" stop-color="#A29BFE"/>
    </linearGradient>
    <mask id="k">
      <rect x="0" y="0" width="220" height="170" fill="#fff"/>
      <circle cx="74" cy="74" r="29" fill="#000"/>
      <circle cx="146" cy="74" r="29" fill="#000"/>
      <path d="M96 74 C 100 66 120 66 124 74 C 120 82 100 82 96 74 Z" fill="#000"/>
      <circle cx="74" cy="74" r="14.5" fill="#fff"/>
      <circle cx="146" cy="74" r="14.5" fill="#fff"/>
    </mask>
  </defs>
  <rect width="512" height="512" rx="114.5" ry="114.5" fill="url(#g)"/>
  <g transform="translate(112.5,145.2) scale(1.304)">
    <path d="M110 12 C 164 12 204 38 204 74 C 204 110 164 136 110 136 C 96 136 82.5 134.4 70 131.5 L 53 156 C 51.5 158 48.5 156.8 49.2 154.4 L 56 132.5 C 30 122 16 100 16 74 C 16 38 56 12 110 12 Z" fill="#FFFFFF" mask="url(#k)"/>
  </g>
</svg>
