<svg xmlns="http://www.w3.org/2000/svg" viewBox="0 0 760 200" fill="none">
  <defs>
    <linearGradient id="talk" x1="0" y1="0" x2="1" y2="1">
      <stop offset="0" stop-color="#A29BFE"/>
      <stop offset="1" stop-color="#7C6FF7"/>
    </linearGradient>
    <radialGradient id="wBlue" cx="0.30" cy="0.28" r="0.62">
      <stop offset="0" stop-color="#4F6BF0" stop-opacity="0.95"/>
      <stop offset="1" stop-color="#4F6BF0" stop-opacity="0"/>
    </radialGradient>
    <radialGradient id="wMag" cx="0.72" cy="0.76" r="0.6">
      <stop offset="0" stop-color="#C0407A" stop-opacity="0.9"/>
      <stop offset="1" stop-color="#C0407A" stop-opacity="0"/>
    </radialGradient>
    <clipPath id="wRound"><rect x="10" y="20" width="160" height="160" rx="40" ry="40"/></clipPath>
  </defs>
  <g clip-path="url(#wRound)">
    <rect x="10" y="20" width="160" height="160" fill="#0D0D1A"/>
    <rect x="10" y="20" width="160" height="160" fill="url(#wBlue)"/>
    <rect x="10" y="20" width="160" height="160" fill="url(#wMag)"/>
  </g>
  <g transform="translate(40,52) scale(0.43)">
    <path d="M110 12 C 164 12 204 38 204 74 C 204 110 164 136 110 136 C 96 136 82.5 134.4 70 131.5 L 53 156 C 51.5 158 48.5 156.8 49.2 154.4 L 56 132.5 C 30 122 16 100 16 74 C 16 38 56 12 110 12 Z" fill="rgba(255,255,255,0.16)" stroke="rgba(255,255,255,0.6)" stroke-width="6"/>
    <circle cx="74" cy="74" r="29" fill="#FFFFFF"/>
    <circle cx="146" cy="74" r="29" fill="#FFFFFF"/>
    <path d="M96 74 C 100 66 120 66 124 74 C 120 82 100 82 96 74 Z" fill="#FFFFFF"/>
    <circle cx="74" cy="74" r="16" fill="#636DF3"/>
    <circle cx="146" cy="74" r="16" fill="#636DF3"/>
  </g>
  <text x="200" y="130" font-family="'Clash Display','Space Grotesk','Inter',sans-serif" font-weight="700" font-size="108" letter-spacing="-4">
    <tspan fill="#0D0D1A">Eyes</tspan><tspan fill="url(#talk)">Talk</tspan>
  </text>
</svg>
